<svg width="644" height="630" viewBox="0 0 644 630" fill="none" xmlns="http://www.w3.org/2000/svg">
<rect x="14" width="630" height="630" fill="#BDE3FF"/>
<rect x="40" y="252.177" width="288.329" height="291.507" transform="rotate(-8.60871 40 252.177)" fill="#FF9B99"/>
<rect width="288.329" height="291.507" transform="matrix(-0.991911 -0.126933 -0.126933 0.991911 476.583 125.598)" fill="#FFFF66"/>
<rect width="288.329" height="291.507" transform="matrix(-0.969307 -0.245853 -0.245853 0.969307 612.597 250.494)" fill="#4786B3"/>
<path d="M192.643 305.68H172.003V296.32H164.323V350.32H172.723V370H122.323V350.32H130.723V296.32H123.043V305.68H102.403V276.64H192.643V305.68ZM223.838 371.68C212.478 371.68 203.598 368.72 197.198 362.8C190.798 356.8 187.598 348.08 187.598 336.64C187.598 325.2 190.798 316.52 197.198 310.6C203.598 304.6 212.478 301.6 223.838 301.6C235.358 301.6 244.278 304.64 250.598 310.72C256.918 316.72 260.078 325.36 260.078 336.64C260.078 348.08 256.878 356.8 250.478 362.8C244.078 368.72 235.198 371.68 223.838 371.68ZM223.838 350.32C226.158 350.32 227.878 349.72 228.998 348.52C230.198 347.24 230.798 345.28 230.798 342.64V330.64C230.798 328 230.198 326.08 228.998 324.88C227.878 323.6 226.158 322.96 223.838 322.96C221.518 322.96 219.758 323.6 218.558 324.88C217.438 326.08 216.878 328 216.878 330.64V342.64C216.878 345.28 217.438 347.24 218.558 348.52C219.758 349.72 221.518 350.32 223.838 350.32ZM293.058 371.68C282.978 371.68 273.258 370.08 263.898 366.88V349.12H283.338V350.32C283.338 354.16 285.778 356.08 290.658 356.08C294.978 356.08 297.138 354.6 297.138 351.64C297.138 350.04 296.498 348.84 295.218 348.04C294.018 347.24 291.858 346.56 288.738 346L282.738 344.92C270.178 342.68 263.898 335.56 263.898 323.56C263.898 316.6 266.538 311.2 271.818 307.36C277.098 303.52 284.218 301.6 293.178 301.6C303.178 301.6 311.618 303.28 318.498 306.64V323.32H300.258V322.12C300.258 320.52 299.698 319.32 298.578 318.52C297.538 317.64 295.978 317.2 293.898 317.2C289.898 317.2 287.898 318.48 287.898 321.04C287.898 322.4 288.458 323.44 289.578 324.16C290.698 324.88 292.738 325.56 295.698 326.2L302.538 327.52C309.658 328.88 314.738 331.4 317.778 335.08C320.818 338.76 322.338 343.48 322.338 349.24C322.338 356.52 319.778 362.08 314.658 365.92C309.618 369.76 302.418 371.68 293.058 371.68ZM355.765 371.68C347.285 371.68 340.885 369.64 336.565 365.56C332.325 361.4 330.205 354.44 330.205 344.68V322.96H324.925V303.28C327.965 303.28 330.245 302.52 331.765 301C333.285 299.4 334.045 297.24 334.045 294.52V289.12H359.485V303.28H375.685V322.96H359.485V342.64C359.485 345.28 360.045 347.24 361.165 348.52C362.365 349.72 364.125 350.32 366.445 350.32C369.485 350.32 372.805 349.96 376.405 349.24V368.08C374.165 368.96 371.125 369.76 367.285 370.48C363.525 371.28 359.685 371.68 355.765 371.68ZM382.185 346.12V326.44H420.705V346.12H382.185ZM427.146 370V350.32H433.146V296.32H427.146V276.64H472.746V296.32H466.746V350.32H472.746V370H427.146ZM506.937 371.68C498.457 371.68 492.057 369.64 487.737 365.56C483.497 361.4 481.377 354.44 481.377 344.68V322.96H476.097V303.28C479.137 303.28 481.417 302.52 482.937 301C484.457 299.4 485.217 297.24 485.217 294.52V289.12H510.657V303.28H526.857V322.96H510.657V342.64C510.657 345.28 511.217 347.24 512.337 348.52C513.537 349.72 515.297 350.32 517.617 350.32C520.657 350.32 523.977 349.96 527.577 349.24V368.08C525.337 368.96 522.297 369.76 518.457 370.48C514.697 371.28 510.857 371.68 506.937 371.68Z" fill="black"/>
</svg>
